<svg width="16" height="23" viewBox="0 0 16 23" fill="none" xmlns="http://www.w3.org/2000/svg">
<path d="M9 1.56476H7C4.17157 1.56476 2.75736 1.56476 1.87868 2.43599C1 3.30722 1 4.70945 1 7.51391V16.0992C1 18.9392 1 20.3592 1.53297 20.9295C1.98898 21.4175 2.66136 21.6462 3.32344 21.5386C4.09728 21.4129 4.97653 20.292 6.73503 18.0502C7.16718 17.4993 7.38326 17.2239 7.64624 17.1252C7.8742 17.0397 8.1258 17.0397 8.35376 17.1252C8.61674 17.2239 8.83282 17.4993 9.26497 18.0502C11.0235 20.292 11.9027 21.4129 12.6766 21.5386C13.3386 21.6462 14.011 21.4175 14.467 20.9295C15 20.3592 15 18.9392 15 16.0992V7.51391C15 4.70945 15 3.30722 14.1213 2.43599C13.2426 1.56476 11.8284 1.56476 9 1.56476Z" stroke="black" stroke-width="2" stroke-linejoin="round"/>
</svg>
