<svg width="16" height="23" viewBox="0 0 16 23" fill="none" xmlns="http://www.w3.org/2000/svg">
<path d="M9.07008 0.564759H6.92993C5.57539 0.564726 4.45924 0.564699 3.57605 0.682435C2.64976 0.805915 1.83103 1.07501 1.17459 1.72588C0.516981 2.37792 0.243989 3.19316 0.118907 4.11563C-6.32778e-05 4.99302 -3.41084e-05 6.10113 1.21157e-06 7.44289L3.44305e-06 16.1505C-7.28578e-06 17.527 -1.58623e-05 18.6265 0.0702413 19.4504C0.136583 20.2285 0.278254 21.0515 0.802355 21.6123C1.48724 22.3452 2.49432 22.6865 3.48383 22.5257C4.23923 22.4029 4.85748 21.8434 5.39193 21.2693C5.95722 20.6621 6.63776 19.7945 7.49037 18.7076L7.52184 18.6674C7.74931 18.3774 7.87976 18.2127 7.98305 18.1027L8 18.0849L8.01695 18.1027C8.12025 18.2127 8.25069 18.3774 8.47816 18.6674L8.50957 18.7075C9.36221 19.7944 10.0428 20.6621 10.6081 21.2693C11.1425 21.8434 11.7608 22.4029 12.5162 22.5257C13.5057 22.6865 14.5128 22.3452 15.1977 21.6123C15.7218 21.0515 15.8634 20.2285 15.9298 19.4504C16 18.6266 16 17.5271 16 16.1507L16 7.44294C16 6.10117 16.0001 4.99302 15.8811 4.11563C15.756 3.19316 15.483 2.37792 14.8254 1.72588C14.169 1.07501 13.3502 0.805915 12.424 0.682435C11.5408 0.564699 10.4246 0.564726 9.07008 0.564759Z" fill="black"/>
</svg>
