<svg width="32" height="32" viewBox="0 0 32 32" fill="none" xmlns="http://www.w3.org/2000/svg"><circle cx="16" cy="16" r="16" fill="#E1E1E0"></circle><path d="M10.5 9.69352C10.1242 9.69352 9.8125 9.38186 9.8125 9.00602V7.40186C9.8125 7.02602 10.1242 6.71436 10.5 6.71436C10.8758 6.71436 11.1875 7.02602 11.1875 7.40186V9.00602C11.1875 9.39102 10.8758 9.69352 10.5 9.69352Z" fill="#828280"></path><path d="M14.168 9.69352C13.7921 9.69352 13.4805 9.38186 13.4805 9.00602V7.40186C13.4805 7.02602 13.7921 6.71436 14.168 6.71436C14.5438 6.71436 14.8555 7.02602 14.8555 7.40186V9.00602C14.8555 9.39102 14.5438 9.69352 14.168 9.69352Z" fill="#828280"></path><path d="M17.832 9.69352C17.4562 9.69352 17.1445 9.38186 17.1445 9.00602V7.40186C17.1445 7.02602 17.4562 6.71436 17.832 6.71436C18.2079 6.71436 18.5195 7.02602 18.5195 7.40186V9.00602C18.5195 9.39102 18.2079 9.69352 17.832 9.69352Z" fill="#828280"></path><path d="M25.3971 17.1458C25.3971 14.7441 23.5363 12.8008 21.1896 12.5991C20.5113 11.4899 19.3013 10.7383 17.908 10.7383H11.1521C9.02547 10.7383 7.29297 12.4708 7.29297 14.5974V15.0833H21.7671V14.5974C21.7671 14.4233 21.7396 14.2491 21.7121 14.0841C23.0413 14.4783 24.0221 15.6883 24.0221 17.1458C24.0221 18.5849 23.0688 19.7858 21.7671 20.1891V15.9999H7.29297V21.3074C7.29297 23.4341 9.02547 25.1666 11.1521 25.1666H17.908C19.9246 25.1666 21.5655 23.6083 21.7305 21.6283C23.8205 21.2066 25.3971 19.3549 25.3971 17.1458Z" fill="#828280"></path></svg>