<svg width="29" height="39" viewBox="0 0 29 39" fill="none" xmlns="http://www.w3.org/2000/svg">
    <path d="M14.5 38.9999C14.1301 39.0027 13.7685 38.8888 13.4656 38.674C13.1628 38.4591 12.9337 38.1541 12.8104 37.8014C10.9191 32.5292 3.86457 24.6369 3.78892 24.554L3.74479 24.4967C1.86298 22.3922 0.625398 19.7808 0.182115 16.9791C-0.261167 14.1775 0.10889 11.306 1.24742 8.71285C2.38594 6.11968 4.24403 3.91623 6.59636 2.3697C8.94869 0.823174 11.6942 0 14.5 0C17.3058 0 20.0513 0.823174 22.4036 2.3697C24.756 3.91623 26.6141 6.11968 27.7526 8.71285C28.8911 11.306 29.2612 14.1775 28.8179 16.9791C28.3746 19.7808 27.137 22.3922 25.2552 24.4967L25.2111 24.554C25.1354 24.6369 18.0809 32.5292 16.1896 37.8014C16.0671 38.1546 15.8382 38.4602 15.5352 38.6751C15.2322 38.8901 14.8701 39.0037 14.5 38.9999Z" fill="#027A48"/>
    <path d="M27.6839 14.6817C27.6839 11.1386 26.2951 7.74053 23.8231 5.23515C21.351 2.72977 17.9982 1.32227 14.5021 1.32227C11.0061 1.32227 7.65325 2.72977 5.18118 5.23515C2.70911 7.74053 1.32031 11.1386 1.32031 14.6817C1.32041 18.0134 2.55474 21.2237 4.77897 23.677C4.77897 23.677 12.0164 31.75 14.0125 37.3164C14.048 37.4219 14.1153 37.5135 14.2047 37.5784C14.2942 37.6433 14.4015 37.6782 14.5115 37.6782C14.6216 37.6782 14.7288 37.6433 14.8183 37.5784C14.9078 37.5135 14.975 37.4219 15.0106 37.3164C17.0067 31.75 24.2378 23.677 24.2378 23.677C26.458 21.2221 27.6879 18.0118 27.6839 14.6817Z" fill="#039855"/>
    <path d="M13.6137 9.28675L10.4758 7.7355C8.78286 6.90675 7.39453 7.74967 7.39453 9.6055V20.1172C7.39453 20.9247 8.06745 21.5834 8.88911 21.5834H14.1449C14.5345 21.5834 14.8533 21.2647 14.8533 20.8751V11.2488C14.8533 10.5051 14.2937 9.61967 13.6137 9.28675ZM12.3529 15.7397H9.89495C9.60453 15.7397 9.3637 15.4988 9.3637 15.2084C9.3637 14.918 9.60453 14.6772 9.89495 14.6772H12.3529C12.6433 14.6772 12.8841 14.918 12.8841 15.2084C12.8841 15.4988 12.6504 15.7397 12.3529 15.7397ZM12.3529 12.9063H9.89495C9.60453 12.9063 9.3637 12.6655 9.3637 12.3751C9.3637 12.0847 9.60453 11.8438 9.89495 11.8438H12.3529C12.6433 11.8438 12.8841 12.0847 12.8841 12.3751C12.8841 12.6655 12.6504 12.9063 12.3529 12.9063Z" fill="white"/>
    <path d="M21.5827 18.7783V19.8125C21.5827 20.79 20.7893 21.5833 19.8118 21.5833H16.6031C16.2206 21.5833 15.916 21.2787 15.916 20.8962V19.3662C16.6739 19.4583 17.4743 19.2387 18.0481 18.7783C18.5298 19.1679 19.146 19.4017 19.8189 19.4017C20.4777 19.4017 21.0939 19.1679 21.5827 18.7783Z" fill="white"/>
    <path d="M21.5827 16.6605V16.6675C21.526 17.5955 20.7681 18.3392 19.8189 18.3392C18.8343 18.3392 18.0481 17.5388 18.0481 16.5684C18.0481 17.6521 17.0493 18.5234 15.916 18.3038V14.5C15.916 14.0467 16.3339 13.7067 16.7802 13.8059L18.0481 14.0892L18.3881 14.1671L19.8331 14.493C20.1802 14.5638 20.4989 14.6842 20.7752 14.8613C20.7752 14.8684 20.7823 14.8684 20.7823 14.8684C20.8531 14.918 20.9239 14.9746 20.9877 15.0384C21.3135 15.3642 21.526 15.8388 21.5756 16.533C21.5756 16.5755 21.5827 16.618 21.5827 16.6605Z" fill="white"/>
</svg>
