<svg width="32" height="32" viewBox="0 0 32 32" fill="none" xmlns="http://www.w3.org/2000/svg"><circle cx="16" cy="16" r="16" fill="#E1E1E0"></circle><path d="M14.853 9.25333L10.7922 7.24583C8.60135 6.17333 6.80469 7.26416 6.80469 9.66583V23.2692C6.80469 24.3142 7.67552 25.1667 8.73885 25.1667H15.5405C16.0447 25.1667 16.4572 24.7542 16.4572 24.25V11.7925C16.4572 10.83 15.733 9.68416 14.853 9.25333ZM13.2214 17.6042H10.0405C9.66469 17.6042 9.35302 17.2925 9.35302 16.9167C9.35302 16.5408 9.66469 16.2292 10.0405 16.2292H13.2214C13.5972 16.2292 13.9089 16.5408 13.9089 16.9167C13.9089 17.2925 13.6064 17.6042 13.2214 17.6042ZM13.2214 13.9375H10.0405C9.66469 13.9375 9.35302 13.6258 9.35302 13.25C9.35302 12.8742 9.66469 12.5625 10.0405 12.5625H13.2214C13.5972 12.5625 13.9089 12.8742 13.9089 13.25C13.9089 13.6258 13.6064 13.9375 13.2214 13.9375Z" fill="#828280"></path><path d="M25.1654 21.5366V22.875C25.1654 24.14 24.1387 25.1666 22.8737 25.1666H18.7212C18.2262 25.1666 17.832 24.7725 17.832 24.2775V22.2975C18.8129 22.4166 19.8487 22.1325 20.5912 21.5366C21.2145 22.0408 22.012 22.3433 22.8829 22.3433C23.7354 22.3433 24.5329 22.0408 25.1654 21.5366Z" fill="#828280"></path><path d="M25.1654 18.7957V18.8048C25.092 20.0057 24.1112 20.9682 22.8829 20.9682C21.6087 20.9682 20.5912 19.9323 20.5912 18.6765C20.5912 20.079 19.2987 21.2065 17.832 20.9223V15.9998C17.832 15.4132 18.3729 14.9732 18.9504 15.1015L20.5912 15.4682L21.0312 15.569L22.9012 15.9907C23.3504 16.0823 23.7629 16.2382 24.1204 16.4673C24.1204 16.4765 24.1295 16.4765 24.1295 16.4765C24.2212 16.5407 24.3129 16.614 24.3954 16.6965C24.817 17.1182 25.092 17.7323 25.1562 18.6307C25.1562 18.6857 25.1654 18.7407 25.1654 18.7957Z" fill="#828280"></path></svg>