<svg width="29" height="39" viewBox="0 0 29 39" fill="none" xmlns="http://www.w3.org/2000/svg">
    <path d="M14.5 38.9999C14.1301 39.0027 13.7685 38.8888 13.4656 38.674C13.1628 38.4591 12.9337 38.1541 12.8104 37.8014C10.9191 32.5292 3.86457 24.6369 3.78892 24.554L3.74479 24.4967C1.86298 22.3922 0.625398 19.7808 0.182115 16.9791C-0.261167 14.1775 0.10889 11.306 1.24742 8.71285C2.38594 6.11968 4.24403 3.91623 6.59636 2.3697C8.94869 0.823174 11.6942 0 14.5 0C17.3058 0 20.0513 0.823174 22.4036 2.3697C24.756 3.91623 26.6141 6.11968 27.7526 8.71285C28.8911 11.306 29.2612 14.1775 28.8179 16.9791C28.3746 19.7808 27.137 22.3922 25.2552 24.4967L25.2111 24.554C25.1354 24.6369 18.0809 32.5292 16.1896 37.8014C16.0671 38.1546 15.8382 38.4602 15.5352 38.6751C15.2322 38.8901 14.8701 39.0037 14.5 38.9999Z" fill="#C11574"/>
    <path d="M27.6839 14.6817C27.6839 11.1386 26.2951 7.74053 23.8231 5.23515C21.351 2.72977 17.9982 1.32227 14.5021 1.32227C11.0061 1.32227 7.65325 2.72977 5.18118 5.23515C2.70911 7.74053 1.32031 11.1386 1.32031 14.6817C1.32041 18.0134 2.55474 21.2237 4.77897 23.677C4.77897 23.677 12.0164 31.75 14.0125 37.3164C14.048 37.4219 14.1153 37.5135 14.2047 37.5784C14.2942 37.6433 14.4015 37.6782 14.5115 37.6782C14.6216 37.6782 14.7288 37.6433 14.8183 37.5784C14.9078 37.5135 14.975 37.4219 15.0106 37.3164C17.0067 31.75 24.2378 23.677 24.2378 23.677C26.458 21.2221 27.6879 18.0118 27.6839 14.6817Z" fill="#DD2590"/>
    <path d="M19.6277 9.95264H19.3443L16.9502 7.55848C16.7589 7.36723 16.4473 7.36723 16.2489 7.55848C16.0577 7.74973 16.0577 8.06139 16.2489 8.25973L17.9418 9.95264H11.0568L12.7498 8.25973C12.941 8.06848 12.941 7.75681 12.7498 7.55848C12.5585 7.36723 12.2468 7.36723 12.0485 7.55848L9.66143 9.95264H9.3781C8.7406 9.95264 7.41602 9.95264 7.41602 11.766C7.41602 12.4531 7.55768 12.9064 7.85518 13.2039C8.02518 13.381 8.2306 13.4731 8.45018 13.5226C8.6556 13.5722 8.87518 13.5793 9.08768 13.5793H19.911C20.1306 13.5793 20.336 13.5651 20.5343 13.5226C21.1293 13.381 21.5827 12.956 21.5827 11.766C21.5827 9.95264 20.2581 9.95264 19.6277 9.95264Z" fill="white"/>
    <path d="M19.4932 14.5H9.44906C9.0099 14.5 8.67698 14.8896 8.74781 15.3217L9.34281 18.9625C9.54115 20.1808 10.0724 21.5833 12.4311 21.5833H16.4049C18.792 21.5833 19.217 20.3863 19.472 19.0475L20.1874 15.3429C20.2724 14.9037 19.9395 14.5 19.4932 14.5ZM14.4995 19.8125C12.842 19.8125 11.4891 18.4596 11.4891 16.8021C11.4891 16.5117 11.7299 16.2708 12.0203 16.2708C12.3107 16.2708 12.5516 16.5117 12.5516 16.8021C12.5516 17.8787 13.4228 18.75 14.4995 18.75C15.5761 18.75 16.4474 17.8787 16.4474 16.8021C16.4474 16.5117 16.6882 16.2708 16.9786 16.2708C17.2691 16.2708 17.5099 16.5117 17.5099 16.8021C17.5099 18.4596 16.157 19.8125 14.4995 19.8125Z" fill="white"/>
</svg>
