<svg width="32" height="32" viewBox="0 0 32 32" fill="none" xmlns="http://www.w3.org/2000/svg"><circle cx="16" cy="16" r="16" fill="#E1E1E0"></circle><path d="M18.75 11.4807C18.75 10.8665 18.4475 10.2982 17.9342 9.95902L14.2675 7.51152C13.6533 7.09902 12.8467 7.09902 12.2325 7.51152L8.56583 9.95902C8.06167 10.2982 7.75 10.8665 7.75 11.4807V16.6874C7.75 16.944 7.95167 17.1457 8.20833 17.1457H18.2917C18.5483 17.1457 18.75 16.944 18.75 16.6874V11.4807ZM13.25 14.854C12.37 14.854 11.6458 14.1299 11.6458 13.2499C11.6458 12.3699 12.37 11.6457 13.25 11.6457C14.13 11.6457 14.8542 12.3699 14.8542 13.2499C14.8542 14.1299 14.13 14.854 13.25 14.854Z" fill="#828280"></path><path d="M25.1654 24.4794H24.0012V21.7294C24.872 21.4452 25.5045 20.6294 25.5045 19.6669V17.8335C25.5045 16.6327 24.5237 15.6519 23.3229 15.6519C22.122 15.6519 21.1412 16.6327 21.1412 17.8335V19.6669C21.1412 20.6202 21.7645 21.4269 22.617 21.7202V24.4794H18.7487V18.9794C18.7487 18.7227 18.547 18.521 18.2904 18.521H8.20703C7.95036 18.521 7.7487 18.7227 7.7487 18.9794V24.4794H6.83203C6.4562 24.4794 6.14453 24.791 6.14453 25.1669C6.14453 25.5427 6.4562 25.8544 6.83203 25.8544H23.2679C23.2862 25.8544 23.2954 25.8635 23.3137 25.8635C23.332 25.8635 23.3412 25.8544 23.3595 25.8544H25.1654C25.5412 25.8544 25.8529 25.5427 25.8529 25.1669C25.8529 24.791 25.5412 24.4794 25.1654 24.4794ZM12.5612 21.7294C12.5612 21.3535 12.8729 21.0419 13.2487 21.0419C13.6245 21.0419 13.9362 21.3535 13.9362 21.7294V24.4794H12.5612V21.7294Z" fill="#828280"></path></svg>