<svg width="29" height="39" viewBox="0 0 29 39" fill="none" xmlns="http://www.w3.org/2000/svg">
    <path d="M14.5 38.9999C14.1301 39.0027 13.7685 38.8888 13.4656 38.674C13.1628 38.4591 12.9337 38.1541 12.8104 37.8014C10.9191 32.5292 3.86457 24.6369 3.78892 24.554L3.74479 24.4967C1.86298 22.3922 0.625398 19.7808 0.182115 16.9791C-0.261167 14.1775 0.10889 11.306 1.24742 8.71285C2.38594 6.11968 4.24403 3.91623 6.59636 2.3697C8.94869 0.823174 11.6942 0 14.5 0C17.3058 0 20.0513 0.823174 22.4036 2.3697C24.756 3.91623 26.6141 6.11968 27.7526 8.71285C28.8911 11.306 29.2612 14.1775 28.8179 16.9791C28.3746 19.7808 27.137 22.3922 25.2552 24.4967L25.2111 24.554C25.1354 24.6369 18.0809 32.5292 16.1896 37.8014C16.0671 38.1546 15.8382 38.4602 15.5352 38.6751C15.2322 38.8901 14.8701 39.0037 14.5 38.9999Z" fill="#6927DA"/>
    <path d="M27.6839 14.6817C27.6839 11.1386 26.2951 7.74053 23.8231 5.23515C21.351 2.72977 17.9982 1.32227 14.5021 1.32227C11.0061 1.32227 7.65325 2.72977 5.18118 5.23515C2.70911 7.74053 1.32031 11.1386 1.32031 14.6817C1.32041 18.0134 2.55474 21.2237 4.77897 23.677C4.77897 23.677 12.0164 31.75 14.0125 37.3164C14.048 37.4219 14.1153 37.5135 14.2047 37.5784C14.2942 37.6433 14.4015 37.6782 14.5115 37.6782C14.6216 37.6782 14.7288 37.6433 14.8183 37.5784C14.9078 37.5135 14.975 37.4219 15.0106 37.3164C17.0067 31.75 24.2378 23.677 24.2378 23.677C26.458 21.2221 27.6879 18.0118 27.6839 14.6817Z" fill="#7839EE"/>
    <path d="M17.9209 17.1284C18.3955 16.8158 19.0188 17.1568 19.0188 17.7251V18.6415C19.0188 19.5437 18.3176 20.5099 17.4746 20.794L15.2151 21.5471C14.8184 21.682 14.1738 21.682 13.7842 21.5471L11.5246 20.794C10.6746 20.5099 9.98047 19.5437 9.98047 18.6415V17.718C9.98047 17.1568 10.6038 16.8158 11.0713 17.1213L12.5305 18.0732C13.0901 18.4497 13.7984 18.6344 14.5067 18.6344C15.2151 18.6344 15.9234 18.4497 16.483 18.0732L17.9209 17.1284Z" fill="white"/>
    <path d="M20.1533 10.6067L15.9104 7.81481C15.1454 7.31043 13.8846 7.31043 13.1196 7.81481L8.85539 10.6067C7.48831 11.4947 7.48831 13.5051 8.85539 14.4003L9.98872 15.1391L13.1196 17.185C13.8846 17.6894 15.1454 17.6894 15.9104 17.185L19.02 15.1391L19.9904 14.4997V16.6735C19.9904 16.9648 20.2312 17.2063 20.5216 17.2063C20.8121 17.2063 21.0529 16.9648 21.0529 16.6735V13.1784C21.3362 12.2619 21.0458 11.1963 20.1533 10.6067Z" fill="white"/>
</svg>
