<svg width="32" height="32" viewBox="0 0 32 32" fill="none" xmlns="http://www.w3.org/2000/svg"><circle cx="16" cy="16" r="16" fill="#E1E1E0"></circle><path d="M20.4282 19.3368C21.0423 18.9335 21.849 19.3735 21.849 20.1068V21.2893C21.849 22.4535 20.9415 23.7001 19.8507 24.0668L16.9265 25.0385C16.4132 25.2126 15.579 25.2126 15.0748 25.0385L12.1507 24.0668C11.0507 23.7001 10.1523 22.4535 10.1523 21.2893V20.0976C10.1523 19.3735 10.959 18.9335 11.564 19.3276L13.4523 20.556C14.1765 21.0418 15.0932 21.2801 16.0098 21.2801C16.9265 21.2801 17.8432 21.0418 18.5673 20.556L20.4282 19.3368Z" fill="#828280"></path><path d="M23.3149 10.9217L17.8241 7.31918C16.8341 6.66835 15.2024 6.66835 14.2124 7.31918L8.69406 10.9217C6.9249 12.0675 6.9249 14.6617 8.69406 15.8167L10.1607 16.77L14.2124 19.41C15.2024 20.0608 16.8341 20.0608 17.8241 19.41L21.8482 16.77L23.1041 15.945V18.75C23.1041 19.1258 23.4157 19.4375 23.7916 19.4375C24.1674 19.4375 24.4791 19.1258 24.4791 18.75V14.24C24.8457 13.0575 24.4699 11.6825 23.3149 10.9217Z" fill="#828280"></path></svg>