<svg width="32" height="32" viewBox="0 0 32 32" fill="none" xmlns="http://www.w3.org/2000/svg"><circle cx="16" cy="16" r="16" fill="#E1E1E0"></circle><path d="M22.6354 10.115H22.2687L19.1704 7.01668C18.9229 6.76918 18.5195 6.76918 18.2629 7.01668C18.0154 7.26418 18.0154 7.66751 18.2629 7.92418L20.4537 10.115H11.5437L13.7345 7.92418C13.982 7.67668 13.982 7.27335 13.7345 7.01668C13.487 6.76918 13.0837 6.76918 12.827 7.01668L9.73786 10.115H9.3712C8.5462 10.115 6.83203 10.115 6.83203 12.4617C6.83203 13.3508 7.01536 13.9375 7.40036 14.3225C7.62036 14.5517 7.8862 14.6708 8.17036 14.735C8.4362 14.7992 8.72036 14.8083 8.99536 14.8083H23.002C23.2862 14.8083 23.552 14.79 23.8087 14.735C24.5787 14.5517 25.1654 14.0017 25.1654 12.4617C25.1654 10.115 23.4512 10.115 22.6354 10.115Z" fill="#828280"></path><path d="M22.4611 16H9.4628C8.89447 16 8.46364 16.5042 8.5553 17.0633L9.3253 21.775C9.58197 23.3517 10.2695 25.1667 13.322 25.1667H18.4645C21.5536 25.1667 22.1036 23.6175 22.4336 21.885L23.3595 17.0908C23.4695 16.5225 23.0386 16 22.4611 16ZM15.9986 22.875C13.8536 22.875 12.1028 21.1242 12.1028 18.9792C12.1028 18.6033 12.4145 18.2917 12.7903 18.2917C13.1661 18.2917 13.4778 18.6033 13.4778 18.9792C13.4778 20.3725 14.6053 21.5 15.9986 21.5C17.392 21.5 18.5195 20.3725 18.5195 18.9792C18.5195 18.6033 18.8311 18.2917 19.207 18.2917C19.5828 18.2917 19.8945 18.6033 19.8945 18.9792C19.8945 21.1242 18.1436 22.875 15.9986 22.875Z" fill="#828280"></path></svg>